<svg width="38" height="14" viewBox="0 0 38 14" fill="none" xmlns="http://www.w3.org/2000/svg">
  <g id="747e604b5c7b78d2c12d0a417154b34b">
    <path id="f85500f33ea696c718e53e4621fe3b1f" d="M8.1168 1.61904L9.53468 9.99999C9.573 10.3047 9.76461 10.4571 10.1095 10.4571C10.4161 10.4571 10.6077 10.3047 10.6843 9.99999L12.2555 0.704752H13.1369L12.9453 1.77142L11.5274 10.1524C11.4124 10.8381 10.7993 11.3333 10.1095 11.3333C9.3814 11.3333 8.80658 10.8381 8.69161 10.1524L7.27373 1.73332C7.23541 1.54285 7.15877 1.46666 6.96716 1.46666C6.77556 1.46666 6.69891 1.54285 6.66059 1.73332L5.24271 10.1524C5.12775 10.8381 4.51461 11.3333 3.82483 11.3333C3.13505 11.3333 2.52191 10.8381 2.40694 10.1524L0.797455 0.704752H1.67884L3.25001 9.99999C3.32665 10.3047 3.47994 10.4571 3.82483 10.4571C4.1314 10.4571 4.323 10.3047 4.36132 9.99999L5.77921 1.58094C5.89417 1.00952 6.35402 0.628563 6.96716 0.628563C7.54198 0.628563 8.04015 1.04761 8.1168 1.61904Z" fill="#3C3C3C" stroke="#3C3C3C" stroke-width="0.5" stroke-miterlimit="10"></path>
    <path id="33602aeb93475b75c4af12998bb9c9e5" d="M14.7847 2.03807V0.742836H15.6661V2.03807H14.7847ZM14.7847 11.219V3.37141H15.6661V11.219H14.7847Z" fill="#3C3C3C" stroke="#3C3C3C" stroke-width="0.5" stroke-miterlimit="10"></path>
    <path id="b37ed77ef65fa73611dc97f4d295d39d" d="M19.1533 11.8286C19.1533 12.4 18.9617 12.8952 18.5402 13.2762C18.1186 13.6952 17.6588 13.8857 17.084 13.8857V13.0476C17.7354 13.0476 18.3102 12.5143 18.3102 11.8666V3.37141H19.1916V11.8286H19.1533ZM18.2719 2.03807V0.742836H19.1533V2.03807H18.2719Z" fill="#3C3C3C" stroke="#3C3C3C" stroke-width="0.5" stroke-miterlimit="10"></path>
    <path id="f122b1ec80f0333b6591af7a32bfd5ca" d="M21.6442 4.01904C21.6442 4.09523 21.6825 4.13333 21.7591 4.05714C22.3723 3.48571 23.1004 3.18095 23.9434 3.18095C24.7865 3.18095 25.5146 3.48571 26.1661 4.13333C26.7792 4.74285 27.0858 5.46666 27.0858 6.34285V11.219H26.2427V6.34285C26.2427 5.69524 26.0128 5.2 25.5529 4.74285C25.0931 4.28571 24.5949 4.05714 23.9434 4.05714C23.292 4.05714 22.7555 4.28571 22.334 4.74285C21.8741 5.2 21.6442 5.69524 21.6442 6.34285V11.219H20.8011V0.704758H21.6442V4.01904Z" fill="#3C3C3C" stroke="#3C3C3C" stroke-width="0.5" stroke-miterlimit="10"></path>
    <path id="51961cb17fe2ad520a9541f3181181f5" d="M35.5931 4.40001C36.3978 5.20001 36.781 6.15239 36.781 7.25715V11.2191H35.938V9.92382C35.938 9.88572 35.8997 9.88572 35.8997 9.84762C35.8613 9.84762 35.823 9.84763 35.823 9.88572C34.9799 10.8381 33.9453 11.3333 32.719 11.3333C31.6077 11.3333 30.6113 10.9524 29.8449 10.1524C29.0402 9.35239 28.657 8.40001 28.657 7.29524C28.657 6.19048 29.0402 5.20001 29.8449 4.4381C30.6497 3.6381 31.6077 3.21905 32.719 3.21905C33.8303 3.18096 34.7883 3.60001 35.5931 4.40001ZM30.4197 5.00953C29.8066 5.65715 29.4617 6.38096 29.4617 7.29524C29.4617 8.17144 29.7683 8.93334 30.4197 9.54286C31.0712 10.1905 31.8376 10.4952 32.719 10.4952C33.6004 10.4952 34.3668 10.1905 34.9799 9.54286C35.6314 8.89524 35.938 8.17144 35.938 7.29524C35.938 6.41905 35.6314 5.65715 34.9799 5.00953C34.3285 4.36191 33.6004 4.05715 32.719 4.05715C31.7993 4.05715 31.0329 4.36191 30.4197 5.00953Z" fill="#3C3C3C" stroke="#3C3C3C" stroke-width="0.5" stroke-miterlimit="10"></path>
  </g>
</svg>