<svg width="23" height="32" viewBox="0 0 23 32" fill="none" xmlns="http://www.w3.org/2000/svg">
  <g id="8430cc6d2afb260ec19869612edee9aa">
    <g id="84ed401054511f129f1baabe995eddbd">
      <path d="M21.1355 3.78144C22.2046 5.25151 22.561 6.89977 22.2492 8.72622L21.1355 15.0965L19.9773 14.8292L20.1109 12.8246C20.1109 12.78 20.0663 12.78 20.0663 12.7355C20.0218 12.691 19.9773 12.7355 19.9327 12.7355C18.329 14.0274 16.5471 14.5174 14.587 14.161C12.8051 13.8492 11.3796 12.9582 10.3104 11.4436C9.2413 9.929 8.88492 8.28074 9.19675 6.49884C9.50858 4.71694 10.3995 3.29141 11.9141 2.22227C13.4288 1.15313 15.077 0.796749 16.8589 1.10858C18.6854 1.37587 20.0663 2.26682 21.1355 3.78144ZM12.716 3.29141C11.5578 4.13782 10.845 5.25151 10.5777 6.67703C10.3104 8.10255 10.6223 9.39443 11.4241 10.5527C12.2705 11.7555 13.3842 12.4237 14.8097 12.691C16.2353 12.9582 17.5271 12.691 18.6854 11.8445C19.8882 10.9981 20.6009 9.88445 20.8237 8.45893C21.0464 7.03341 20.7791 5.74153 19.9327 4.53875C19.0863 3.33596 17.9726 2.66775 16.5471 2.40046C15.2107 2.17772 13.8742 2.44501 12.716 3.29141Z" fill="#D91B5C"></path>
      <path d="M13.206 20.0413L15.567 29.129C15.6561 29.5745 15.968 29.7527 16.5025 29.7527C17.0371 29.7527 17.3489 29.5299 17.438 29.129L20.1554 12.5128L21.4473 12.9582L21.2691 14.4729L18.9081 29.3517C18.7299 30.3318 17.7053 31 16.5471 31C15.3443 31 14.3643 30.2872 14.1861 29.3517L11.7805 20.264C11.736 20.0413 11.5578 19.9077 11.2459 19.9077C10.9341 19.9077 10.8005 20.0413 10.7559 20.264L8.39489 29.3517C8.2167 30.3318 7.19211 31 6.03387 31C4.87564 31 3.85104 30.2872 3.67285 29.3517L1 18.8385H2.42552L5.05383 29.129C5.14292 29.5745 5.45475 29.7527 5.98932 29.7527C6.5239 29.7527 6.79118 29.5299 6.88028 29.129L9.24129 20.0413C9.41948 19.2394 10.2213 18.7049 11.2014 18.7049C12.1814 18.7049 13.0278 19.284 13.206 20.0413Z" fill="#D91B5C"></path>
      <path d="M21.1355 3.78144C22.2046 5.25151 22.561 6.89977 22.2492 8.72622L21.1355 15.0965L19.9773 14.8292L20.1109 12.8246C20.1109 12.78 20.0663 12.78 20.0663 12.7355C20.0218 12.691 19.9773 12.7355 19.9327 12.7355C18.329 14.0274 16.5471 14.5174 14.587 14.161C12.8051 13.8492 11.3796 12.9582 10.3104 11.4436C9.2413 9.929 8.88492 8.28074 9.19675 6.49884C9.50858 4.71694 10.3995 3.29141 11.9141 2.22227C13.4288 1.15313 15.077 0.796749 16.8589 1.10858C18.6854 1.37587 20.0663 2.26682 21.1355 3.78144ZM12.716 3.29141C11.5578 4.13782 10.845 5.25151 10.5777 6.67703C10.3104 8.10255 10.6223 9.39443 11.4241 10.5527C12.2705 11.7555 13.3842 12.4237 14.8097 12.691C16.2353 12.9582 17.5271 12.691 18.6854 11.8445C19.8882 10.9981 20.6009 9.88445 20.8237 8.45893C21.0464 7.03341 20.7791 5.74153 19.9327 4.53875C19.0863 3.33596 17.9726 2.66775 16.5471 2.40046C15.2107 2.17772 13.8742 2.44501 12.716 3.29141Z" stroke="#D91B5C" stroke-width="0.5"></path>
      <path d="M13.206 20.0413L15.567 29.129C15.6561 29.5745 15.968 29.7527 16.5025 29.7527C17.0371 29.7527 17.3489 29.5299 17.438 29.129L20.1554 12.5128L21.4473 12.9582L21.2691 14.4729L18.9081 29.3517C18.7299 30.3318 17.7053 31 16.5471 31C15.3443 31 14.3643 30.2872 14.1861 29.3517L11.7805 20.264C11.736 20.0413 11.5578 19.9077 11.2459 19.9077C10.9341 19.9077 10.8005 20.0413 10.7559 20.264L8.39489 29.3517C8.2167 30.3318 7.19211 31 6.03387 31C4.87564 31 3.85104 30.2872 3.67285 29.3517L1 18.8385H2.42552L5.05383 29.129C5.14292 29.5745 5.45475 29.7527 5.98932 29.7527C6.5239 29.7527 6.79118 29.5299 6.88028 29.129L9.24129 20.0413C9.41948 19.2394 10.2213 18.7049 11.2014 18.7049C12.1814 18.7049 13.0278 19.284 13.206 20.0413Z" stroke="#D91B5C" stroke-width="0.5"></path>
    </g>
  </g>
</svg>