<svg width="22" height="22" viewBox="0 0 22 22" fill="none" xmlns="http://www.w3.org/2000/svg">
  <path id="0139311743549460f048b54584dfe9f3" d="M18.2446 0.933804C17.4522 0.476205 16.5774 0.179173 15.6702 0.0596721C14.763 -0.0598292 13.8412 0.000540118 12.9573 0.237333C12.0734 0.474125 11.2448 0.882703 10.5189 1.43974C9.79293 1.99677 9.1838 2.69134 8.72629 3.4838L8.46377 3.93731C8.41915 4.01457 8.39018 4.09986 8.37854 4.18832C8.3669 4.27678 8.37281 4.36666 8.39593 4.45283C8.41905 4.539 8.45892 4.61977 8.51328 4.69052C8.56763 4.76127 8.6354 4.82062 8.71271 4.86516L13.6561 7.71931L10.6978 12.8962H10.6363C7.77762 12.8962 5.30185 14.5546 3.82725 16.8982C4.05429 16.8182 4.29499 16.7843 4.53529 16.7984C4.77559 16.8124 5.01068 16.8742 5.22684 16.9802C5.44299 17.0861 5.63587 17.234 5.79423 17.4153C5.95258 17.5966 6.07323 17.8076 6.14913 18.0361C6.68864 19.6645 8.65477 19.5749 9.15083 18.1338C9.27356 17.7775 9.50446 17.4683 9.81131 17.2494C10.1182 17.0305 10.4857 16.9129 10.8626 16.9129C11.2395 16.9129 11.607 17.0305 11.9139 17.2494C12.2207 17.4683 12.4516 17.7775 12.5744 18.1338C13.0704 19.5758 15.0365 19.6645 15.5761 18.0361C15.7003 17.6607 15.9441 17.3364 16.27 17.1127C16.5959 16.8889 16.9862 16.778 17.3811 16.7968C16.1753 14.9339 14.3323 13.5199 12.1697 13.0583L14.832 8.39822L19.6052 11.1537C19.6824 11.1984 19.7676 11.2274 19.856 11.2391C19.9445 11.2508 20.0343 11.245 20.1205 11.2219C20.2067 11.1989 20.2874 11.1591 20.3582 11.1048C20.429 11.0506 20.4884 10.9829 20.533 10.9057L20.7955 10.4512C21.7193 8.85088 21.9696 6.94909 21.4912 5.16423C21.0128 3.37936 19.845 1.85764 18.2446 0.933804V0.933804ZM5.07555 18.3918C5.02906 18.2521 4.93843 18.1313 4.81731 18.0476C4.69619 17.9639 4.55115 17.9219 4.40405 17.9278C4.25694 17.9337 4.11576 17.9873 4.00176 18.0805C3.88776 18.1736 3.80714 18.3013 3.77204 18.4443C3.54121 19.3875 3.10399 19.9044 2.60612 20.2059C2.08471 20.52 1.42028 20.6422 0.678912 20.6422C0.498854 20.6422 0.326169 20.7137 0.198849 20.841C0.071528 20.9683 0 21.141 0 21.3211C0 21.5011 0.071528 21.6738 0.198849 21.8012C0.326169 21.9285 0.498854 22 0.678912 22C1.5452 22 2.48934 21.8624 3.30766 21.3682C3.796 21.0736 4.20764 20.6675 4.50888 20.1832C6.12831 22.2489 9.29024 22.2381 10.8626 20.1615C12.4603 22.2707 15.6965 22.2489 17.2923 20.0837C17.7256 20.6734 18.2906 21.1537 18.9424 21.4864C19.5941 21.8191 20.3145 21.995 21.0463 22C21.2263 22 21.399 21.9285 21.5263 21.8012C21.6537 21.6738 21.7252 21.5011 21.7252 21.3211C21.7252 21.141 21.6537 20.9683 21.5263 20.841C21.399 20.7137 21.2263 20.6422 21.0463 20.6422C19.7111 20.6422 18.3804 19.7732 17.9414 18.399C17.8979 18.2623 17.8123 18.1428 17.6967 18.0578C17.5812 17.9728 17.4416 17.9265 17.2981 17.9257C17.1547 17.9249 17.0146 17.9696 16.8981 18.0533C16.7816 18.1371 16.6946 18.2556 16.6496 18.3918C15.7779 21.0251 12.3607 20.9916 11.5044 18.5004C11.4583 18.3669 11.3717 18.251 11.2567 18.169C11.1416 18.087 11.0039 18.0429 10.8626 18.0429C10.7213 18.0429 10.5836 18.087 10.4685 18.169C10.3535 18.251 10.2669 18.3669 10.2208 18.5004C9.36446 20.9916 5.94818 21.0251 5.07555 18.3918Z" fill="#3C3C3C"></path>
</svg>