<svg width="20" height="22" viewBox="0 0 20 22" fill="none" xmlns="http://www.w3.org/2000/svg">
  <path id="5618d00952941e125c5056258b042939" d="M15.1333 5.86667H4.86667C4.47769 5.86667 4.10464 5.71214 3.82958 5.43709C3.55453 5.16204 3.40001 4.78898 3.40001 4.4V0.733333C3.40001 0.538841 3.47727 0.352315 3.6148 0.214788C3.75232 0.0772617 3.93885 0 4.13334 0C4.32783 0 4.51436 0.0772617 4.65189 0.214788C4.78941 0.352315 4.86667 0.538841 4.86667 0.733333V2.93333H6.33334V1.46667C6.33334 1.07768 6.48786 0.70463 6.76292 0.429577C7.03797 0.154523 7.41102 0 7.80001 0C8.18899 0 8.56204 0.154523 8.8371 0.429577C9.11215 0.70463 9.26667 1.07768 9.26667 1.46667V2.93333H10.7333V1.46667C10.7333 1.07768 10.8879 0.70463 11.1629 0.429577C11.438 0.154523 11.811 0 12.2 0C12.589 0 12.962 0.154523 13.2371 0.429577C13.5122 0.70463 13.6667 1.07768 13.6667 1.46667V2.93333H15.1333V0.733333C15.1333 0.538841 15.2106 0.352315 15.3481 0.214788C15.4857 0.0772617 15.6722 0 15.8667 0C16.0612 0 16.2477 0.0772617 16.3852 0.214788C16.5227 0.352315 16.6 0.538841 16.6 0.733333V4.4C16.6 4.78898 16.4455 5.16204 16.1704 5.43709C15.8954 5.71214 15.5223 5.86667 15.1333 5.86667ZM19.5333 21.2667C19.5333 21.4612 19.4561 21.6477 19.3186 21.7852C19.181 21.9227 18.9945 22 18.8 22H1.20001C1.00552 22 0.81899 21.9227 0.681463 21.7852C0.543936 21.6477 0.466675 21.4612 0.466675 21.2667C0.466675 21.0722 0.543936 20.8856 0.681463 20.7481C0.81899 20.6106 1.00552 20.5333 1.20001 20.5333H1.93334C2.32233 20.5333 2.69538 20.3788 2.97043 20.1038C3.24548 19.8287 3.40001 19.4557 3.40001 19.0667C3.40001 19.0667 4.86667 10.2667 4.86667 8.8C4.86667 8.41102 5.0212 8.03796 5.29625 7.76291C5.5713 7.48786 5.94436 7.33333 6.33334 7.33333H13.6667C14.0557 7.33333 14.4287 7.48786 14.7038 7.76291C14.9788 8.03796 15.1333 8.41102 15.1333 8.8C15.1333 10.2667 16.6 19.0667 16.6 19.0667C16.6 19.4557 16.7545 19.8287 17.0296 20.1038C17.3046 20.3788 17.6777 20.5333 18.0667 20.5333H18.8C18.992 20.5333 19.1763 20.6085 19.3134 20.7429C19.4505 20.8773 19.5295 21.0601 19.5333 21.252V21.2667ZM12.2 15.4C12.2 14.8165 11.9682 14.2569 11.5556 13.8444C11.1431 13.4318 10.5835 13.2 10 13.2C9.41653 13.2 8.85695 13.4318 8.44437 13.8444C8.03179 14.2569 7.80001 14.8165 7.80001 15.4V20.5333H12.2V15.4Z" fill="#3C3C3C"></path>
</svg>