<?xml version="1.0" encoding="utf-8"?>
<!-- Generator: Adobe Illustrator 21.0.2, SVG Export Plug-In . SVG Version: 6.00 Build 0)  -->
<svg version="1.1" id="Layer_1" xmlns="http://www.w3.org/2000/svg" xmlns:xlink="http://www.w3.org/1999/xlink" x="0px" y="0px"
	 viewBox="0 0 700 700" style="enable-background:new 0 0 700 700;" xml:space="preserve">
<g>
	<path d="M143.5,103.6c-21.9,0-39.9,18-39.9,39.9v145.3c0,21.9,18,39.9,39.9,39.9h144.8c21.9,0,39.9-18,39.9-39.9V143.6
		c0-21.9-18-39.9-39.9-39.9L143.5,103.6z"/>
	<path d="M411.7,103.6c-21.9,0-39.9,18-39.9,39.9v145.3c0,21.9,18,39.9,39.9,39.9h144.9c21.9,0,39.8-18,39.8-39.9V143.6
		c0-21.9-17.9-39.9-39.8-39.9L411.7,103.6z"/>
	<path d="M143.5,371.2c-21.9,0-39.9,18.1-39.9,39.9v145.3c0,21.9,17.9,39.9,39.9,39.9h144.8c21.9,0,39.9-18.1,39.9-39.9V411.1
		c0-21.9-17.9-39.9-39.9-39.9H143.5z"/>
	<path d="M411.7,371.2c-21.9,0-39.9,18.1-39.9,39.9v145.3c0,21.9,18,39.9,39.9,39.9h144.9c21.9,0,39.8-18.1,39.8-39.9V411.1
		c0-21.9-17.9-39.9-39.8-39.9H411.7z"/>
</g>
</svg>
