<svg width="23" height="22" viewBox="0 0 23 22" fill="none" xmlns="http://www.w3.org/2000/svg">
  <g id="61c692d9434aa07ea0fa771ce91140ad">
    <path id="32be356b4c08d5f881e895bde1477e78" d="M6.89147 0.68917C6.89147 0.50639 6.96408 0.331097 7.09332 0.201853C7.22256 0.0726085 7.39786 0 7.58064 0H14.4723C14.6551 0 14.8304 0.0726085 14.9597 0.201853C15.0889 0.331097 15.1615 0.50639 15.1615 0.68917V4.08126H18.6074C18.7901 4.08126 18.9654 4.15387 19.0947 4.28312C19.2239 4.41236 19.2965 4.58765 19.2965 4.77043V10.3706L21.5487 10.9978C21.646 11.0247 21.7361 11.0726 21.8128 11.1382C21.8895 11.2038 21.9508 11.2854 21.9925 11.3773C22.0342 11.4692 22.0552 11.5691 22.054 11.67C22.0528 11.7709 22.0295 11.8703 21.9857 11.9612L19.4702 17.1824C19.2326 16.914 18.9294 16.712 18.5903 16.5962C18.2511 16.4804 17.8877 16.4547 17.5356 16.5217C17.1835 16.5887 16.8549 16.7461 16.582 16.9784C16.3091 17.2106 16.1012 17.5099 15.9789 17.8467C15.854 18.1275 15.6938 18.391 15.502 18.631C15.145 19.0707 14.8155 19.243 14.482 19.243C14.1512 19.243 13.8176 19.0693 13.4537 18.6227C13.2519 18.3706 13.0842 18.093 12.9548 17.7971C12.8034 17.404 12.5355 17.0665 12.187 16.8299C11.8385 16.5932 11.4261 16.4686 11.0048 16.4728C10.5836 16.477 10.1737 16.6098 9.82999 16.8533C9.48629 17.0969 9.22519 17.4397 9.08165 17.8357C8.95549 18.1183 8.79384 18.3837 8.60061 18.6255C8.24224 19.0707 7.91144 19.243 7.58064 19.243C7.24846 19.243 6.91903 19.0707 6.56204 18.631C6.36309 18.3819 6.19809 18.1075 6.07136 17.815C5.94234 17.4779 5.72731 17.1805 5.44766 16.9522C5.16801 16.724 4.83348 16.573 4.47735 16.5142C4.12122 16.4553 3.75589 16.4908 3.41771 16.617C3.07953 16.7431 2.78027 16.9557 2.5497 17.2334L0.0659313 11.9543C0.0233727 11.8637 0.00108675 11.7648 0.000625297 11.6647C0.000163845 11.5645 0.0215379 11.4655 0.0632593 11.3744C0.104981 11.2834 0.166047 11.2025 0.242205 11.1374C0.318364 11.0724 0.407785 11.0247 0.504243 10.9978L2.75645 10.3706V4.77043C2.75645 4.58765 2.82906 4.41236 2.9583 4.28312C3.08755 4.15387 3.26284 4.08126 3.44562 4.08126H6.89147V0.690548V0.68917ZM13.7832 1.37834H8.26981V4.08126H13.7832V1.37972V1.37834ZM17.9182 9.98745V5.4596H4.13479V9.98607L9.91003 8.37479C10.6364 8.17234 11.4042 8.17234 12.1305 8.37479L17.9182 9.98745Z" fill="#3C3C3C"></path>
    <path id="3188c6685c9f0bf5b65f7ce17e8d5842" d="M12.955 17.7971L12.9575 17.8034V17.8071L12.955 17.7971V17.7971Z" fill="#3C3C3C"></path>
    <path id="e8378c8c4d4769dca7e9072531b4f56c" d="M18.591 18.4022L18.5869 18.3884C18.5515 18.2458 18.4714 18.1183 18.3583 18.0244C18.2453 17.9306 18.1052 17.8753 17.9585 17.8667C17.8118 17.8581 17.6662 17.8966 17.543 17.9765C17.4197 18.0565 17.3252 18.1738 17.2733 18.3112L17.2665 18.3264C17.2609 18.3402 17.2527 18.365 17.2389 18.3953C17.0633 18.7904 16.8372 19.1611 16.5663 19.498C16.0728 20.1045 15.3878 20.6213 14.4726 20.6213C13.5573 20.6213 12.8709 20.1031 12.3747 19.4966C12.0872 19.1401 11.8497 18.7459 11.669 18.325L11.6621 18.3085C11.612 18.1779 11.5233 18.0657 11.4079 17.9868C11.2924 17.9078 11.1557 17.8659 11.0159 17.8665C10.876 17.8671 10.7396 17.9102 10.6249 17.9901C10.5101 18.0701 10.4224 18.183 10.3734 18.314L10.3665 18.3278C10.361 18.3416 10.3527 18.3664 10.3389 18.3967C10.1644 18.7913 9.93919 19.1615 9.66905 19.498C9.17836 20.1045 8.49608 20.6213 7.58087 20.6213C6.66565 20.6213 5.98199 20.1045 5.48855 19.498C5.20169 19.1415 4.96516 18.7473 4.78559 18.3264L4.78008 18.3126V18.3099C4.7283 18.1724 4.63395 18.055 4.51078 17.975C4.38762 17.8949 4.24209 17.8563 4.09542 17.8647C3.94876 17.8732 3.80864 17.9283 3.6955 18.022C3.58237 18.1157 3.50214 18.2431 3.46652 18.3857L3.46377 18.3967L3.44447 18.4615C3.31862 18.8409 3.13296 19.1978 2.89451 19.5187C2.47136 20.0824 1.79735 20.6213 0.68917 20.6213C0.50639 20.6213 0.331098 20.6939 0.201853 20.8232C0.0726089 20.9524 0 21.1277 0 21.3105C0 21.4933 0.0726089 21.6686 0.201853 21.7978C0.331098 21.9271 0.50639 21.9997 0.68917 21.9997C2.33766 21.9997 3.38658 21.1603 3.99718 20.3457C4.0661 20.2519 4.13226 20.1596 4.19015 20.0672C4.26045 20.1665 4.33626 20.2657 4.41896 20.3663C5.04472 21.1382 6.08399 21.9997 7.58087 21.9997C9.07774 21.9997 10.1143 21.1382 10.74 20.3663C10.8434 20.2382 10.9371 20.1113 11.0212 19.9873C11.108 20.1113 11.2031 20.2395 11.3065 20.3677C11.9364 21.1396 12.9757 21.9997 14.4726 21.9997C15.9694 21.9997 17.0087 21.1382 17.6345 20.3663C17.7144 20.2699 17.7888 20.1706 17.8578 20.0741C17.917 20.1679 17.9818 20.2616 18.0507 20.3553C18.6627 21.1768 19.7144 22.019 21.3725 21.9997C21.463 21.9986 21.5524 21.9797 21.6356 21.944C21.7188 21.9084 21.7942 21.8567 21.8574 21.792C21.9207 21.7272 21.9705 21.6506 22.0041 21.5666C22.0378 21.4826 22.0545 21.3927 22.0534 21.3022C22.0523 21.2117 22.0334 21.1223 21.9978 21.0391C21.9622 20.9559 21.9105 20.8806 21.8457 20.8173C21.781 20.7541 21.7044 20.7043 21.6204 20.6706C21.5363 20.637 21.4465 20.6202 21.356 20.6213C20.2492 20.6351 19.5779 20.0976 19.1575 19.5324C18.9192 19.2089 18.7344 18.8492 18.6103 18.467L18.591 18.4008V18.4022Z" fill="#3C3C3C"></path>
  </g>
</svg>