<svg width="24" height="20" viewBox="0 0 24 20" fill="none" xmlns="http://www.w3.org/2000/svg">
  <path id="d1b70be1f5e2d4a2260cec616f908aa7" d="M20 10.5882V3.52941H21.1765V0H2.35294V3.52941H3.52941V10.5882H0C0 11.6824 0.588235 12.6 1.76471 12.8588V18.8235C1.76471 19.1355 1.88865 19.4348 2.10929 19.6554C2.32992 19.8761 2.62916 20 2.94118 20H4.11765C4.42967 20 4.72891 19.8761 4.94954 19.6554C5.17017 19.4348 5.29412 19.1355 5.29412 18.8235V17.6471H18.2353V18.8235C18.2353 19.1355 18.3592 19.4348 18.5799 19.6554C18.8005 19.8761 19.0997 20 19.4118 20H20.5882C20.9003 20 21.1995 19.8761 21.4201 19.6554C21.6408 19.4348 21.7647 19.1355 21.7647 18.8235V12.8588C22.9412 12.5882 23.5294 11.6824 23.5294 10.5882H20ZM7.05882 12.9412C6.59079 12.9412 6.14193 12.7553 5.81099 12.4243C5.48004 12.0934 5.29412 11.6445 5.29412 11.1765C5.29412 10.7084 5.48004 10.2596 5.81099 9.92864C6.14193 9.59769 6.59079 9.41177 7.05882 9.41177C7.52685 9.41177 7.97571 9.59769 8.30666 9.92864C8.63761 10.2596 8.82353 10.7084 8.82353 11.1765C8.82353 11.6445 8.63761 12.0934 8.30666 12.4243C7.97571 12.7553 7.52685 12.9412 7.05882 12.9412ZM16.4706 12.9412C16.0026 12.9412 15.5537 12.7553 15.2228 12.4243C14.8918 12.0934 14.7059 11.6445 14.7059 11.1765C14.7059 10.7084 14.8918 10.2596 15.2228 9.92864C15.5537 9.59769 16.0026 9.41177 16.4706 9.41177C16.9386 9.41177 17.3875 9.59769 17.7184 9.92864C18.0494 10.2596 18.2353 10.7084 18.2353 11.1765C18.2353 11.6445 18.0494 12.0934 17.7184 12.4243C17.3875 12.7553 16.9386 12.9412 16.4706 12.9412ZM18.2353 7.64706C16.3765 7.27059 14.1529 7.05882 11.7647 7.05882C9.37647 7.05882 7.05882 7.27059 5.29412 7.64706V3.52941H18.2353V7.64706Z" fill="#3C3C3C"></path>
</svg>