<svg width="29" height="20" viewBox="0 0 29 20" fill="none" xmlns="http://www.w3.org/2000/svg">
  <path id="60fe92034198bae493067516a788cfb8" d="M27.584 1.00268C25.8614 0.276339 24.1375 5.36946e-08 22.4145 5.36946e-08C16.9449 -0.000446375 11.4757 2.78304 6.00607 2.78304C4.63434 2.78304 3.26349 2.60804 1.89175 2.17054C1.73765 2.12143 1.58312 2.09821 1.43213 2.09821C0.667884 2.09821 0 2.69286 0 3.5183V17.6817C0 18.2455 0.321064 18.7799 0.836632 18.9969C2.55919 19.7237 4.28307 20 6.00607 20C11.4757 20 16.9453 17.2165 22.415 17.2165C23.7867 17.2165 25.1576 17.3915 26.5293 17.829C26.6834 17.8781 26.8379 17.9013 26.9889 17.9013C27.7532 17.9013 28.4211 17.3067 28.4211 16.4813V2.3183C28.4206 1.75402 28.0995 1.22009 27.584 1.00268V1.00268ZM2.13155 4.47411C3.02502 4.69911 3.95757 4.81205 4.91677 4.87277C4.65565 6.18482 3.50817 7.17366 2.13155 7.17366V4.47411ZM2.13155 17.1973V15.0643C3.65782 15.0643 4.89279 16.2817 4.96073 17.8054C3.96023 17.7246 3.02502 17.5237 2.13155 17.1973V17.1973ZM14.2103 14.2857C12.248 14.2857 10.6577 12.3665 10.6577 10C10.6577 7.63304 12.2484 5.71429 14.2103 5.71429C16.1722 5.71429 17.7629 7.63304 17.7629 10C17.7629 12.3674 16.1718 14.2857 14.2103 14.2857ZM26.2891 15.5259C25.5111 15.3299 24.7033 15.2201 23.8769 15.1491C24.1375 13.9848 25.0981 13.1009 26.2891 12.9491V15.5259ZM26.2891 4.98527C24.9173 4.81071 23.8529 3.65938 23.8107 2.2375C24.6784 2.33438 25.5022 2.51563 26.2891 2.80268V4.98527Z" fill="#3C3C3C"></path>
</svg>