<?xml version="1.0" encoding="utf-8"?>
<!-- Generator: Adobe Illustrator 21.0.2, SVG Export Plug-In . SVG Version: 6.00 Build 0)  -->
<svg version="1.1" id="Layer_1" xmlns="http://www.w3.org/2000/svg" xmlns:xlink="http://www.w3.org/1999/xlink" x="0px" y="0px"
	 viewBox="0 0 700 700" style="enable-background:new 0 0 700 700;" xml:space="preserve">
<path d="M88.3,105.5c-3-3.8-1.4-9.4,3.2-11l69.3-24.1c1.3-0.4,2.6-0.5,3.9-0.2l38.2,8.6c0.7,0.2,1.3,0.4,2,0.8l52.9,30.1l1.1,0.7
	l79.8,67.5l85.3,8.4c2.7,0.3,4.9,2,5.9,4.5l4.3,11h20.3c2.5,0,4.8,1.3,6.1,3.5l28.5,48.4l19.2,11.1c1.4,0.8,2.5,2.1,3.1,3.7
	l6.9,18.9c0.5,1.3,0.6,2.6,0.3,3.9l-2.9,12.8l23.6,39.9l15.6,8.5c0.9,0.5,1.7,1.2,2.4,2.1l30.3,42.2l81.8,10c2,0.2,3.9,1.4,5,3
	l14.7,21.5c1.2,1.8,1.6,4,0.9,6.1l-21.7,67.2c-0.7,2.1-2.3,3.7-4.4,4.5l-94.4,33.6l-1.6,0.3l-90.7,12.8l-26,12.5l-29.3,39.1
	c-2.1,2.8-5.9,3.6-9,2l-15.1-7.9l-89.4-5.1c-0.6,0-1.2-0.1-1.7-0.3l-8.1-2.5l-1.8,19.7c-0.2,2-1.2,3.8-2.8,5l-13.9,10.3
	c-3.6,2.7-8.7,1.4-10.6-2.6l-16.1-32.8l-33.2-39.8c-0.5-0.6-0.9-1.3-1.2-2.1l-13.9-37.5l-36.3-24.6c-1.1-0.8-2-1.8-2.5-3l-19.1-43.9
	c-0.7-1.5-0.8-3.2-0.3-4.8l5.3-17.2l-20.5-43l-29.4-17.8c-1.6-1-2.8-2.5-3.2-4.3l-7.5-30.7l-59.2-90.3l-16.9-2.9
	c-4.1-0.7-6.7-4.7-5.7-8.6l11.3-44.8c0.9-3.5,4.3-5.8,7.9-5.3l32.5,4.6l17.4-20.3c1-1.2,2.4-2,3.9-2.3l20.1-4.4l4.6-9.1
	c0.7-1.4,1.8-2.5,3.2-3.1l2.6-1.3L88.3,105.5z"/>
</svg>
