<?xml version="1.0" encoding="utf-8"?>
<!-- Generator: Adobe Illustrator 21.0.2, SVG Export Plug-In . SVG Version: 6.00 Build 0)  -->
<svg version="1.1" id="Layer_1" xmlns="http://www.w3.org/2000/svg" xmlns:xlink="http://www.w3.org/1999/xlink" x="0px" y="0px"
	 viewBox="0 0 700 700" style="enable-background:new 0 0 700 700;" xml:space="preserve">
<g>
	<path d="M679.5,325.2c-7.8-4.4-17.1-4.3-24.8,0.2L598,359.1V212.2c0-3.4-2-6.4-5.1-7.8l-41.5-18.4c11.5-23.3,17.1-40.4,17.1-52
		c0-38.8-31.6-70.3-70.3-70.3s-70.3,31.6-70.3,70.3c0,12.8,6.8,32.3,20.8,59.6c0.1,0.2,0.2,0.4,0.3,0.5l-37.1-16.5c-2.2-1-4.7-1-7,0
		l-60.3,26.9c-3.1,1.4-5.1,4.4-5.1,7.8v33l-26-16.5c-2-1.2-4.4-1.6-6.6-1.1c-2.3,0.6-4.2,2-5.4,4.1c-7.3,12.8-20.8,20.7-35.3,20.7
		c-14.5,0-28-7.9-35.3-20.7c-1.2-2-3.1-3.5-5.4-4.1c-2.3-0.6-4.7-0.2-6.6,1.1l-33.7,21.3c-27.4,17.3-43.8,47.1-43.8,79.7v132.7
		L13.7,506.9c-3.4,1.2-5.7,4.4-5.7,8.1v153.9c0,2.9,1.5,5.7,4,7.2c1.4,0.9,3,1.3,4.5,1.3c1.3,0,2.6-0.3,3.7-0.9l163.2-79.3
		c0.4-0.2,0.8-0.4,1.1-0.7c20.6-14.3,44.6-22.2,69.6-22.9l196.8-5.6c41.6-1.2,80.7-20.2,107.5-52.2l127.7-153.2
		c3.8-4.4,5.8-10,5.8-15.9C692,337.7,687.3,329.6,679.5,325.2L679.5,325.2z M373.9,414.1v32.5h-16.3L373.9,414.1z M391,363.8
		l17.4-7.7l56.9,25.3c2.2,1,4.7,1,7,0l56.8-25.3l42.2,18.8l-106.9,63.3c-9.3,5.5-19.9,8.4-30.5,8.4H391L391,363.8z M444.9,133.9
		c0-29.4,23.9-53.2,53.2-53.2c29.4,0,53.2,23.9,53.2,53.2c0,6.3-2.8,19.5-16.4,46.6c-0.9,1.8-1.8,3.6-2.9,5.7
		c-0.7,1.4-1.4,2.7-2.1,4.1c-1.9,3.7-3.9,7.4-6.1,11.3c-0.7,1.3-1.4,2.6-2.1,3.8c-3,5.4-6.2,10.9-9.6,16.5c-0.2,0.3-0.4,0.7-0.6,1
		c-5.1,8.5-9.7,16-13.3,21.6c0,0.1-0.1,0.2-0.2,0.3c-3-4.7-6.7-10.6-10.8-17.4c-3.6-5.9-7.5-12.6-11.4-19.5
		c-4.5-7.8-8.6-15.3-12-22.1C448.2,155.1,444.9,140.6,444.9,133.9L444.9,133.9z M536.2,252.8c0.6,0.6,1,1.2,1.5,1.7
		c0.3,0.3,0.5,0.6,0.7,0.9c0.2,0.2,0.3,0.4,0.4,0.6c0.2,0.3,0.5,0.7,0.6,1c0,0.1,0.1,0.1,0.1,0.2c0.2,0.3,0.3,0.5,0.4,0.7
		c-1.4,2.8-2.4,4.5-3.7,5.9c-2.3,2.3-5.7,3.4-14.2,6.2c-4.9,1.6-8.3,3.8-10.7,6.2c-4.9,4.8-5.8,10.3-6.3,13.8
		c-0.5,3.3-0.5,3.3-1.8,4c-6.6,3.2-28.6,0.7-37.6-3.5c-1.3-0.6-2.3-1.2-3-1.9c-0.3-5-2.8-8.1-6.3-10.1c-5.7-3.1-13.9-3.2-19.9-3.2
		c-2.7,0-6.8,0-9.3-0.3c-0.2-1.5-0.6-2.9-1-4.4c-0.5-2-1.2-3.9-1.8-5.8c-1.1-3.2-2.9-8.1-2-9.6c0.2-0.3,1.7-2.5,10-4.1
		c18.1-3.6,33.8-7.2,43.8-9.6c0.1,0.1,0.2,0.3,0.2,0.4c0.4,0.6,0.7,1.1,1.1,1.7c0.8,1.2,1.5,2.4,2.2,3.5c0.4,0.7,0.9,1.4,1.3,2
		c0.5,0.9,1.1,1.7,1.6,2.5c0.5,0.8,1,1.5,1.4,2.2c0.4,0.6,0.7,1.2,1.1,1.7c0.5,0.8,1,1.6,1.5,2.3c0.2,0.3,0.4,0.6,0.5,0.8
		c0.5,0.8,1,1.6,1.5,2.3c0,0,0,0,0,0c1.5,2.3,2.5,3.8,2.6,4c1.6,2.4,4.3,3.8,7.1,3.8h0c2.9,0,5.5-1.4,7.1-3.8c0,0,2.9-4.3,7.5-11.5
		c1-1.6,2-3.3,3.2-5.1c0.6-0.9,1.2-1.9,1.8-2.8c0.9-1.4,1.8-2.9,2.7-4.4c0.4-0.6,0.7-1.1,1-1.7c7,5.4,11.7,9.7,14.6,12.8
		C536.1,252.6,536.1,252.7,536.2,252.8L536.2,252.8z M356.7,217.7l51.7-23l54,24.1c1.4,2.5,2.8,5,4.2,7.4c-12.8,3-25.6,5.8-37.9,8.2
		c-9.4,1.9-15.7,5.2-19.6,10c-0.6,0.8-1.4,1.5-1.9,2.4c-4.7,8.3-1.6,17.2,0.8,23.8c0.7,2,1.5,4.3,1.9,6c0.1,0.6,0.2,1.1,0.2,1.5
		c0,1.8,0.3,3.4,0.7,4.8c3.3,9.7,16.9,9.7,25.5,9.7c2.7,0,6.9,0,9.4,0.4c0.8,3.4,3.1,7.4,8.8,11c1.6,1,3.4,1.8,5.4,2.7
		c0.4,0.2,0.8,0.3,1.2,0.5c1.9,0.8,4,1.4,6.1,2c0.4,0.1,0.8,0.2,1.2,0.3c1.9,0.5,3.8,0.9,5.7,1.3c0.6,0.1,1.2,0.2,1.9,0.4
		c2.2,0.4,4.4,0.7,6.6,0.9c0.7,0.1,1.4,0.1,2.1,0.2c1.8,0.1,3.5,0.2,5.2,0.3c0.7,0,1.3,0.1,1.9,0.1c0.1,0,0.2,0,0.3,0
		c2.1,0,4-0.1,5.9-0.3c0.7-0.1,1.4-0.2,2.1-0.2c1.4-0.2,2.7-0.4,4-0.6c0.6-0.1,1.3-0.3,1.9-0.4c1.7-0.4,3.3-1,4.7-1.6
		c9.2-4.6,10.4-12.2,11-16.7c0.3-2,0.5-3.2,1.2-4.1c0.7-0.9,1.9-1.4,4.4-2.2c11-3.7,16.4-5.7,20.4-9.5c2.9-2.7,5.1-6.4,8.1-12.4v0
		c0.3-0.6,0.4-1.2,0.6-1.8c0.2-0.7,0.6-1.4,0.7-2.1c0.2-1,0.1-2.1,0-3.1c0-0.4,0-0.7,0-1.1c-0.2-1.2-0.5-2.3-1-3.6
		c-0.1-0.3-0.2-0.6-0.3-0.9c-0.5-1.2-1.2-2.5-2-3.7c-0.2-0.4-0.4-0.7-0.7-1.1c-0.8-1.2-1.8-2.4-2.8-3.7c-0.4-0.5-0.9-1.1-1.4-1.6
		c-1-1.1-2.1-2.3-3.3-3.5c-0.8-0.8-1.6-1.6-2.5-2.4c-1.2-1.1-2.4-2.2-3.7-3.3c-1.1-1-2.4-2-3.6-3c-1.4-1.1-2.8-2.3-4.4-3.4
		c-0.4-0.3-0.8-0.6-1.2-0.9c0.1-0.2,0.2-0.3,0.3-0.5c1.8-3,3.7-6.4,5.7-10c1.6-2.9,3.1-5.6,4.7-8.4c0.3-0.5,0.6-1.1,0.9-1.6
		c0.6-1.1,1.2-2.2,1.8-3.3l37.2,16.6v142.7l-48.3-21.5c-2.2-1-4.7-1-7,0l-56.8,25.3l-56.9-25.3c-1.1-0.5-2.3-0.7-3.5-0.7
		c-1.2,0-2.4,0.2-3.5,0.7l-13.9,6.2v-15.6c0-3.6-0.2-7.2-0.6-10.8c-0.1-1.2-0.4-2.4-0.6-3.6c-0.4-2.3-0.7-4.7-1.2-7
		c-0.3-1.4-0.8-2.8-1.2-4.2c-0.6-2-1.1-4-1.8-6c-0.5-1.5-1.2-2.9-1.8-4.4c-0.7-1.8-1.5-3.6-2.3-5.4c-0.7-1.5-1.6-2.9-2.4-4.4
		c-0.9-1.6-1.8-3.3-2.8-4.8c-0.9-1.5-1.9-2.8-2.9-4.2c-1-1.5-2.1-3-3.2-4.4c-1.1-1.4-2.3-2.6-3.4-3.9c-1.2-1.3-2.4-2.7-3.7-4
		c-1.2-1.2-2.5-2.3-3.8-3.5c-0.9-0.8-1.6-1.6-2.5-2.3L356.7,217.7z M194.3,264.4l26.7-16.9c10.9,13.7,27.5,22,45.2,22
		c17.7,0,34.3-8.2,45.2-22l26.8,17c1.6,0.9,3.2,2,4.8,3.3c0,0,0,0,0,0c14.5,10.8,24.6,26.5,28.8,43.9c1.4,5.8,2.1,11.8,2.1,17.9
		v40.9c-1.4-1.8-3-3.4-4.7-4.8c-0.5-0.4-1-0.8-1.5-1.2c-1.4-1-2.8-2-4.3-2.8c-0.6-0.3-1.1-0.7-1.8-0.9c-2.1-1-4.2-1.8-6.5-2.4
		l-6.4-1.6c-7-1.8-14.3-1.3-20.8,1.3c-5.1,1.9-9.7,5.2-13.6,9.6l-67.7,79H213l-2.9-98.2c-0.1-4.7-4-8.3-8.8-8.3
		c-4.7,0.1-8.4,4.1-8.3,8.8l1.7,55.9h-36.1v-75.3C158.5,302.9,171.9,278.5,194.3,264.4L194.3,264.4z M158.5,456.3v-34.3h36.6
		l0.7,24.7c-6.8,0-13.3,1.2-19.3,3.3L158.5,456.3z M673.1,351.6L545.4,504.9c-23.6,28.3-58.2,45.1-94.8,46.1l-196.8,5.6
		c-28,0.8-55.1,9.7-78.3,25.6L25.1,655.2V521.1l157.2-55c4.3-1.6,9-2.4,14-2.4h52.2c1.1,0,2.2-0.2,3.2-0.6l3.2-1.3
		c1.3-0.5,2.4-1.3,3.3-2.4l69.1-80.7c2-2.2,4.2-3.9,6.8-4.9c3.3-1.3,6.8-1.6,10.4-0.7l6.5,1.6c5.1,1.2,9.3,4.7,11.5,9.5
		c2.2,4.8,2.1,10.2-0.2,14.8l-24.6,49.2l-0.1,0.1c-2.9,2.3-4,6.1-2.8,9.5c1.2,3.4,4.4,5.7,8.1,5.7h91.1c13.7,0,27.3-3.7,39.2-10.8
		l190.3-112.8c3.4-2,6.4-0.7,7.6-0.1c1.2,0.7,3.9,2.6,3.9,6.7C674.9,348.5,674.3,350.2,673.1,351.6L673.1,351.6z"/>
	<path d="M151,115.9h24.8c0.4,3.8,1,7.6,1.9,11.5c4.4,19.4,11,38.3,19.7,56.6c6.4,13.6,16.3,25.1,28.4,33.3
		c12.2,8.1,26.2,12.4,40.4,12.4c14.1,0,28.1-4.3,40.4-12.3c12-8,21.9-19.5,28.4-33.2c7.8-16.4,14-33.6,18.3-51.2c0,0,0,0,0,0
		c0.5-2,1-4,1.3-5.3c0.1-0.4,0.3-0.8,0.3-1.2c0.8-3.7,1.4-7.1,1.8-10.5h35.6c12.8,0,23.3-10.4,23.3-23.3c0-12.8-10.4-23.3-23.3-23.3
		h-42.4c-14.7-35.4-47.6-58.9-83.6-58.9c-36.1,0-69,23.4-83.7,58.9H151c-12.8,0-23.3,10.4-23.3,23.3
		C127.7,105.5,138.1,115.9,151,115.9L151,115.9z M193,116.4c0-0.1-0.1-0.3-0.1-0.4h68.7C233.5,128,202.8,119.6,193,116.4L193,116.4z
		 M319.6,176.8c-5.2,10.9-13,20-22.4,26.3c-19,12.4-43.1,12.4-61.9,0c-9.6-6.4-17.3-15.5-22.6-26.6c-6.3-13.2-11.3-26.8-15.3-40.9
		c8.2,2.1,19.3,4.1,31.8,4.1c20,0,43.4-5.3,63.3-23.6l23.8,0c1.3,1.5,2.5,2.9,3.8,4.2c0.3,0.3,0.6,0.7,0.9,1.1c2,2.2,4,4.2,6,6.1
		c0.5,0.5,1.1,1,1.6,1.5c1.6,1.4,3.1,2.8,4.7,4c0.5,0.4,0.9,0.8,1.4,1.1c0.2,0.1,0.4,0.3,0.6,0.5C331.3,149,326.1,163.2,319.6,176.8
		L319.6,176.8z M266.2,27.7c26.8,0,51.7,16.4,64.8,41.8H201.3C214.5,44,239.3,27.7,266.2,27.7z M151,86.5h241.3
		c3.4,0,6.2,2.8,6.2,6.2s-2.8,6.2-6.2,6.2H151c-3.4,0-6.2-2.8-6.2-6.2S147.6,86.5,151,86.5L151,86.5z"/>
	<path d="M498.2,174.8c19.3,0,35-15.7,35-35s-15.7-35-35-35c-19.3,0-35,15.7-35,35C463.1,159.1,478.9,174.8,498.2,174.8z
		 M498.2,121.8c9.9,0,17.9,8,17.9,17.9c0,9.9-8.1,17.9-17.9,17.9c-9.9,0-17.9-8-17.9-17.9C480.2,129.8,488.3,121.8,498.2,121.8z"/>
</g>
<path d="M17.9,520v143.1l111.5-47.3l85.5-42.8l69.1-8.4h163.8l78.2-27.5L686.3,352c0,0-3.8-35.1-31.3-15.6S458.8,450.9,458.8,450.9
	l-73.7,5.3l-37.8-0.8l18.7-39.7l6.1-34.7l-16.4-13.4l-19.1-3.4L313.7,378l-27.1,32.4l-35.9,45l-49.2,0.4l-26.7,5.3l-49.2,15.3
	L17.9,520z"/>
</svg>
