<svg width="18" height="20" viewBox="0 0 18 20" fill="none" xmlns="http://www.w3.org/2000/svg">
  <path id="ddd5f703db114c46fa732aa6798e81a8" d="M16.7045 5H13.3239V4.6C13.3239 2.06 11.2756 0 8.75 0C6.22443 0 4.17614 2.06 4.17614 4.6V5H0.795455C0.355469 5 0 5.3575 0 5.8V19.2C0 19.6425 0.355469 20 0.795455 20H16.7045C17.1445 20 17.5 19.6425 17.5 19.2V5.8C17.5 5.3575 17.1445 5 16.7045 5ZM11.5341 5H5.96591V4.6C5.96591 3.0525 7.21129 1.8 8.75 1.8C10.2887 1.8 11.5341 3.0525 11.5341 4.6V5Z" fill="#3C3C3C"></path>
</svg>