<?xml version="1.0" encoding="iso-8859-1"?>
<!-- Generator: Adobe Illustrator 19.0.0, SVG Export Plug-In . SVG Version: 6.00 Build 0)  -->
<svg version="1.1" id="Layer_1" xmlns="http://www.w3.org/2000/svg" xmlns:xlink="http://www.w3.org/1999/xlink" x="0px" y="0px"
	 viewBox="0 0 512.001 512.001" style="enable-background:new 0 0 512.001 512.001;" xml:space="preserve">
<g>
	<g>
		<g>
			<path d="M411.619,99.355h-63.529V40.177C348.091,18.024,330.067,0,307.915,0h-103.83c-22.154,0-40.177,18.024-40.177,40.177
				v59.178h-63.526c-4.494,0-8.137,3.643-8.137,8.137v356.783c0,26.316,21.41,47.726,47.726,47.726h232.06
				c26.316,0,47.726-21.41,47.726-47.726V107.493C419.757,102.998,416.114,99.355,411.619,99.355z M180.184,40.177
				c0-13.18,10.723-23.902,23.902-23.902h103.83c13.179,0,23.901,10.722,23.901,23.902v59.178H180.184V40.177z M403.482,464.275
				c0,17.341-14.11,31.45-31.451,31.45h-232.06c-17.343,0-31.451-14.109-31.451-31.451V152.725h294.963V464.275z M403.482,133.946
				H108.519V115.63h63.527h167.907h63.529V133.946z"/>
			<path d="M159.116,388.623h193.77c5.187,0,9.389-4.204,9.389-9.389V347.83c0-5.185-4.204-9.389-9.389-9.389h-10.793v-63.825
				h10.793c4.463,0,8.31-3.142,9.201-7.516c0.89-4.374-1.422-8.77-5.531-10.515l-96.885-41.147c-2.345-0.997-4.995-0.997-7.34,0
				l-96.885,41.147c-4.109,1.745-6.421,6.141-5.531,10.515c0.891,4.374,4.737,7.516,9.201,7.516h10.791v63.825h-10.791
				c-5.187,0-9.389,4.204-9.389,9.389v31.404C149.727,384.419,153.929,388.623,159.116,388.623z M256,234.28l50.758,21.558H205.242
				L256,234.28z M323.314,274.616v63.825h-19.573v-63.825H323.314z M284.963,274.616v63.825h-19.573v-63.825H284.963z
				 M246.611,274.616v63.825h-19.573v-63.825H246.611z M188.686,274.616h19.575v63.825h-19.575V274.616z M168.505,357.221h174.991
				v12.625H168.505V357.221z"/>
		</g>
	</g>
</g>
<g>
</g>
<g>
</g>
<g>
</g>
<g>
</g>
<g>
</g>
<g>
</g>
<g>
</g>
<g>
</g>
<g>
</g>
<g>
</g>
<g>
</g>
<g>
</g>
<g>
</g>
<g>
</g>
<g>
</g>
</svg>
