<svg width="23" height="22" viewBox="0 0 23 22" fill="none" xmlns="http://www.w3.org/2000/svg">
  <path id="2b74836f2986bb18456835f6adb35ea6" fill-rule="evenodd" clip-rule="evenodd" d="M16.556 19.5894V16.437C18.6595 15.9679 20.6618 13.7358 20.6618 11.0457C20.6618 8.0151 18.3813 0 15.8863 0C13.3912 0 11.1052 8.0151 11.1052 11.0457C11.1052 13.6763 13.1989 15.8738 15.2345 16.4066V19.4648C13.8466 19.3981 12.4573 19.3649 11.0678 19.3652C9.64872 19.3655 8.2311 19.4566 6.82363 19.6378V15.9402C8.28771 15.5099 9.54976 13.978 9.54976 12.1347C9.54976 9.96213 8.03447 4.13486 6.17046 4.13486C4.3023 4.13486 2.79117 9.96213 2.79117 12.1347C2.79117 14.0084 4.04353 15.5666 5.54913 15.9665V19.8316C2.23487 20.4031 0 21.3717 0 22H22.1412C22.1398 21.369 19.8897 19.8814 16.556 19.5894V19.5894Z" fill="#3C3C3C"></path>
</svg>