<svg width="21" height="21" viewBox="0 0 21 21" fill="none" xmlns="http://www.w3.org/2000/svg">
  <g id="6db820b6fe3e2b73ea5b7ab1c4891a33">
    <path d="M13.3792 18.75H4.6875C3.25104 18.75 2.08333 17.5823 2.08333 16.1458C2.08333 14.7094 3.25104 13.5417 4.6875 13.5417H11.9792C13.9896 13.5417 15.625 11.9063 15.625 9.89583C15.625 7.88542 13.9896 6.25 11.9792 6.25H6.91562C6.53307 6.99988 6.05935 7.69962 5.50521 8.33333H11.9792C12.8406 8.33333 13.5417 9.03438 13.5417 9.89583C13.5417 10.7573 12.8406 11.4583 11.9792 11.4583H4.6875C2.10312 11.4583 0 13.5615 0 16.1458C0 18.7302 2.10312 20.8333 4.6875 20.8333H14.6802C14.1691 20.1904 13.7326 19.4915 13.3792 18.75ZM3.125 0C1.40208 0 0 1.40208 0 3.125C0 6.44583 3.125 8.33333 3.125 8.33333C3.125 8.33333 6.25 6.44479 6.25 3.125C6.25 1.40208 4.84792 0 3.125 0ZM3.125 4.6875C2.91974 4.68743 2.71651 4.64694 2.5269 4.56832C2.33729 4.48971 2.16502 4.37452 2.01993 4.22933C1.87484 4.08415 1.75976 3.9118 1.68128 3.72214C1.60279 3.53248 1.56243 3.32922 1.5625 3.12396C1.56257 2.9187 1.60306 2.71546 1.68168 2.52586C1.76029 2.33625 1.87548 2.16398 2.02067 2.01889C2.16585 1.8738 2.3382 1.75872 2.52786 1.68024C2.71752 1.60175 2.92078 1.56139 3.12604 1.56146C3.54058 1.5616 3.93809 1.7264 4.23111 2.01962C4.52414 2.31285 4.68868 2.71046 4.68854 3.125C4.6884 3.53954 4.5236 3.93704 4.23037 4.23007C3.93715 4.5231 3.53954 4.68764 3.125 4.6875Z" fill="#3C3C3C"></path>
    <path d="M17.7083 12.5C15.9854 12.5 14.5833 13.9021 14.5833 15.625C14.5833 18.9458 17.7083 20.8333 17.7083 20.8333C17.7083 20.8333 20.8333 18.9448 20.8333 15.625C20.8333 13.9021 19.4313 12.5 17.7083 12.5ZM17.7083 17.1875C17.5031 17.1874 17.2998 17.1469 17.1102 17.0683C16.9206 16.9897 16.7484 16.8745 16.6033 16.7293C16.4582 16.5841 16.3431 16.4118 16.2646 16.2221C16.1861 16.0325 16.1458 15.8292 16.1458 15.624C16.1459 15.4187 16.1864 15.2155 16.265 15.0259C16.3436 14.8362 16.4588 14.664 16.604 14.5189C16.7492 14.3738 16.9215 14.2587 17.1112 14.1802C17.3009 14.1018 17.5041 14.0614 17.7094 14.0615C18.1239 14.0616 18.5214 14.2264 18.8144 14.5196C19.1075 14.8128 19.272 15.2105 19.2719 15.625C19.2717 16.0395 19.1069 16.437 18.8137 16.7301C18.5205 17.0231 18.1229 17.1876 17.7083 17.1875Z" fill="#3C3C3C"></path>
  </g>
</svg>